<mxfile host="app.diagrams.net" agent="Mozilla/5.0 (Macintosh; Intel Mac OS X 10.15; rv:128.0) Gecko/20100101 Firefox/128.0" version="24.7.7">
  <diagram name="Pagina-1" id="_wQ0y3SvSkBXUFjeyG06">
    <mxGraphModel dx="914" dy="550" grid="1" gridSize="10" guides="1" tooltips="1" connect="1" arrows="1" fold="1" page="1" pageScale="1" pageWidth="827" pageHeight="1169" math="0" shadow="0">
      <root>
        <mxCell id="0" />
        <mxCell id="1" parent="0" />
        <mxCell id="2rA_5p5RH7LvxtzQdsJb-1" value="" style="ellipse;whiteSpace=wrap;html=1;rotation=15;strokeColor=#000000;fillColor=#CB3C33;" vertex="1" parent="1">
          <mxGeometry x="140" y="340" width="160" height="70" as="geometry" />
        </mxCell>
        <mxCell id="2rA_5p5RH7LvxtzQdsJb-3" value="" style="ellipse;whiteSpace=wrap;html=1;rotation=0;fillColor=#389826;" vertex="1" parent="1">
          <mxGeometry x="310" y="110" width="160" height="70" as="geometry" />
        </mxCell>
        <mxCell id="2rA_5p5RH7LvxtzQdsJb-4" value="" style="ellipse;whiteSpace=wrap;html=1;rotation=-25;fillColor=#4063D8;" vertex="1" parent="1">
          <mxGeometry x="319.76" y="268.92" width="120" height="60" as="geometry" />
        </mxCell>
        <mxCell id="2rA_5p5RH7LvxtzQdsJb-6" value="1" style="ellipse;whiteSpace=wrap;html=1;aspect=fixed;fillColor=#E6E6E6;" vertex="1" parent="1">
          <mxGeometry x="160" y="347" width="30" height="30" as="geometry" />
        </mxCell>
        <mxCell id="2rA_5p5RH7LvxtzQdsJb-7" value="2" style="ellipse;whiteSpace=wrap;html=1;aspect=fixed;" vertex="1" parent="1">
          <mxGeometry x="200" y="360" width="30" height="30" as="geometry" />
        </mxCell>
        <mxCell id="2rA_5p5RH7LvxtzQdsJb-9" value="3" style="ellipse;whiteSpace=wrap;html=1;aspect=fixed;fillColor=#E6E6E6;" vertex="1" parent="1">
          <mxGeometry x="240" y="377" width="30" height="30" as="geometry" />
        </mxCell>
        <mxCell id="2rA_5p5RH7LvxtzQdsJb-10" value="2" style="ellipse;whiteSpace=wrap;html=1;aspect=fixed;fillColor=#E6E6E6;" vertex="1" parent="1">
          <mxGeometry x="350" y="297" width="30" height="30" as="geometry" />
        </mxCell>
        <mxCell id="2rA_5p5RH7LvxtzQdsJb-11" value="1" style="ellipse;whiteSpace=wrap;html=1;aspect=fixed;fillColor=#E6E6E6;" vertex="1" parent="1">
          <mxGeometry x="384" y="276" width="30" height="30" as="geometry" />
        </mxCell>
        <mxCell id="2rA_5p5RH7LvxtzQdsJb-12" value="1" style="ellipse;whiteSpace=wrap;html=1;aspect=fixed;fillColor=#E6E6E6;" vertex="1" parent="1">
          <mxGeometry x="330" y="130" width="30" height="30" as="geometry" />
        </mxCell>
        <mxCell id="2rA_5p5RH7LvxtzQdsJb-13" value="2" style="ellipse;whiteSpace=wrap;html=1;aspect=fixed;fillColor=#E6E6E6;" vertex="1" parent="1">
          <mxGeometry x="370" y="130" width="30" height="30" as="geometry" />
        </mxCell>
        <mxCell id="2rA_5p5RH7LvxtzQdsJb-14" value="3" style="ellipse;whiteSpace=wrap;html=1;aspect=fixed;fillColor=#E6E6E6;" vertex="1" parent="1">
          <mxGeometry x="414" y="130" width="30" height="30" as="geometry" />
        </mxCell>
        <mxCell id="2rA_5p5RH7LvxtzQdsJb-15" value="" style="ellipse;whiteSpace=wrap;html=1;fillColor=#9558B2;" vertex="1" parent="1">
          <mxGeometry x="520" y="350" width="60" height="50" as="geometry" />
        </mxCell>
        <mxCell id="2rA_5p5RH7LvxtzQdsJb-16" value="" style="ellipse;whiteSpace=wrap;html=1;fillColor=#4063D8;" vertex="1" parent="1">
          <mxGeometry x="240" y="220" width="60" height="50" as="geometry" />
        </mxCell>
        <mxCell id="2rA_5p5RH7LvxtzQdsJb-19" value="1" style="ellipse;whiteSpace=wrap;html=1;aspect=fixed;fillColor=#E6E6E6;" vertex="1" parent="1">
          <mxGeometry x="535" y="360" width="30" height="30" as="geometry" />
        </mxCell>
        <mxCell id="2rA_5p5RH7LvxtzQdsJb-20" value="1" style="ellipse;whiteSpace=wrap;html=1;aspect=fixed;fillColor=#E6E6E6;" vertex="1" parent="1">
          <mxGeometry x="255" y="230" width="30" height="30" as="geometry" />
        </mxCell>
        <mxCell id="2rA_5p5RH7LvxtzQdsJb-21" value="" style="ellipse;whiteSpace=wrap;html=1;fillColor=#4063D8;" vertex="1" parent="1">
          <mxGeometry x="285" y="20" width="60" height="50" as="geometry" />
        </mxCell>
        <mxCell id="2rA_5p5RH7LvxtzQdsJb-22" value="1" style="ellipse;whiteSpace=wrap;html=1;aspect=fixed;fillColor=#E6E6E6;" vertex="1" parent="1">
          <mxGeometry x="300" y="30" width="30" height="30" as="geometry" />
        </mxCell>
        <mxCell id="2rA_5p5RH7LvxtzQdsJb-23" value="" style="ellipse;whiteSpace=wrap;html=1;fillColor=#4063D8;" vertex="1" parent="1">
          <mxGeometry x="470" y="30" width="60" height="50" as="geometry" />
        </mxCell>
        <mxCell id="2rA_5p5RH7LvxtzQdsJb-24" value="1" style="ellipse;whiteSpace=wrap;html=1;aspect=fixed;fillColor=#E6E6E6;" vertex="1" parent="1">
          <mxGeometry x="485" y="40" width="30" height="30" as="geometry" />
        </mxCell>
        <mxCell id="2rA_5p5RH7LvxtzQdsJb-25" value="" style="ellipse;whiteSpace=wrap;html=1;fillColor=#4063D8;" vertex="1" parent="1">
          <mxGeometry x="175" y="440" width="60" height="50" as="geometry" />
        </mxCell>
        <mxCell id="2rA_5p5RH7LvxtzQdsJb-26" value="1" style="ellipse;whiteSpace=wrap;html=1;aspect=fixed;fillColor=#E6E6E6;" vertex="1" parent="1">
          <mxGeometry x="190" y="450" width="30" height="30" as="geometry" />
        </mxCell>
        <mxCell id="2rA_5p5RH7LvxtzQdsJb-27" value="" style="endArrow=none;html=1;rounded=0;exitX=1;exitY=0;exitDx=0;exitDy=0;entryX=0;entryY=1;entryDx=0;entryDy=0;strokeWidth=4;" edge="1" parent="1" source="2rA_5p5RH7LvxtzQdsJb-20" target="2rA_5p5RH7LvxtzQdsJb-12">
          <mxGeometry width="50" height="50" relative="1" as="geometry">
            <mxPoint x="380" y="280" as="sourcePoint" />
            <mxPoint x="430" y="230" as="targetPoint" />
          </mxGeometry>
        </mxCell>
        <mxCell id="2rA_5p5RH7LvxtzQdsJb-28" value="" style="endArrow=none;html=1;rounded=0;exitX=1;exitY=0;exitDx=0;exitDy=0;entryX=0;entryY=1;entryDx=0;entryDy=0;strokeWidth=4;" edge="1" parent="1" source="2rA_5p5RH7LvxtzQdsJb-6" target="2rA_5p5RH7LvxtzQdsJb-20">
          <mxGeometry width="50" height="50" relative="1" as="geometry">
            <mxPoint x="148.5" y="320" as="sourcePoint" />
            <mxPoint x="201.5" y="242" as="targetPoint" />
          </mxGeometry>
        </mxCell>
        <mxCell id="2rA_5p5RH7LvxtzQdsJb-31" value="" style="endArrow=none;html=1;rounded=0;exitX=1;exitY=0.5;exitDx=0;exitDy=0;entryX=0;entryY=1;entryDx=0;entryDy=0;strokeWidth=4;" edge="1" parent="1" source="2rA_5p5RH7LvxtzQdsJb-9" target="2rA_5p5RH7LvxtzQdsJb-19">
          <mxGeometry width="50" height="50" relative="1" as="geometry">
            <mxPoint x="196" y="361" as="sourcePoint" />
            <mxPoint x="269" y="266" as="targetPoint" />
          </mxGeometry>
        </mxCell>
        <mxCell id="2rA_5p5RH7LvxtzQdsJb-32" value="" style="endArrow=none;html=1;rounded=0;exitX=0.5;exitY=0;exitDx=0;exitDy=0;entryX=1;entryY=1;entryDx=0;entryDy=0;strokeWidth=4;" edge="1" parent="1" source="2rA_5p5RH7LvxtzQdsJb-19" target="2rA_5p5RH7LvxtzQdsJb-14">
          <mxGeometry width="50" height="50" relative="1" as="geometry">
            <mxPoint x="206" y="371" as="sourcePoint" />
            <mxPoint x="279" y="276" as="targetPoint" />
          </mxGeometry>
        </mxCell>
        <mxCell id="2rA_5p5RH7LvxtzQdsJb-33" value="" style="endArrow=none;html=1;rounded=0;exitX=1;exitY=0;exitDx=0;exitDy=0;entryX=0;entryY=1;entryDx=0;entryDy=0;strokeWidth=4;" edge="1" parent="1" source="2rA_5p5RH7LvxtzQdsJb-7" target="2rA_5p5RH7LvxtzQdsJb-10">
          <mxGeometry width="50" height="50" relative="1" as="geometry">
            <mxPoint x="345" y="430" as="sourcePoint" />
            <mxPoint x="418" y="335" as="targetPoint" />
          </mxGeometry>
        </mxCell>
        <mxCell id="2rA_5p5RH7LvxtzQdsJb-35" value="" style="endArrow=none;html=1;rounded=0;exitX=0.5;exitY=0;exitDx=0;exitDy=0;entryX=0.5;entryY=1;entryDx=0;entryDy=0;strokeWidth=4;" edge="1" parent="1" source="2rA_5p5RH7LvxtzQdsJb-11" target="2rA_5p5RH7LvxtzQdsJb-13">
          <mxGeometry width="50" height="50" relative="1" as="geometry">
            <mxPoint x="226" y="391" as="sourcePoint" />
            <mxPoint x="299" y="296" as="targetPoint" />
          </mxGeometry>
        </mxCell>
        <mxCell id="2rA_5p5RH7LvxtzQdsJb-36" value="" style="endArrow=none;html=1;rounded=0;exitX=1;exitY=0;exitDx=0;exitDy=0;entryX=0;entryY=1;entryDx=0;entryDy=0;strokeWidth=4;" edge="1" parent="1" source="2rA_5p5RH7LvxtzQdsJb-14" target="2rA_5p5RH7LvxtzQdsJb-24">
          <mxGeometry width="50" height="50" relative="1" as="geometry">
            <mxPoint x="560" y="370" as="sourcePoint" />
            <mxPoint x="450" y="166" as="targetPoint" />
          </mxGeometry>
        </mxCell>
        <mxCell id="2rA_5p5RH7LvxtzQdsJb-37" value="" style="endArrow=none;html=1;rounded=0;exitX=0.5;exitY=0;exitDx=0;exitDy=0;entryX=1;entryY=1;entryDx=0;entryDy=0;strokeWidth=4;" edge="1" parent="1" source="2rA_5p5RH7LvxtzQdsJb-13" target="2rA_5p5RH7LvxtzQdsJb-22">
          <mxGeometry width="50" height="50" relative="1" as="geometry">
            <mxPoint x="570" y="380" as="sourcePoint" />
            <mxPoint x="460" y="176" as="targetPoint" />
          </mxGeometry>
        </mxCell>
        <mxCell id="2rA_5p5RH7LvxtzQdsJb-38" value="" style="endArrow=none;html=1;rounded=0;exitX=0.5;exitY=0;exitDx=0;exitDy=0;entryX=0.5;entryY=1;entryDx=0;entryDy=0;strokeWidth=4;" edge="1" parent="1" source="2rA_5p5RH7LvxtzQdsJb-26" target="2rA_5p5RH7LvxtzQdsJb-7">
          <mxGeometry width="50" height="50" relative="1" as="geometry">
            <mxPoint x="580" y="390" as="sourcePoint" />
            <mxPoint x="470" y="186" as="targetPoint" />
          </mxGeometry>
        </mxCell>
        <mxCell id="2rA_5p5RH7LvxtzQdsJb-39" value="" style="endArrow=none;html=1;rounded=0;exitX=1;exitY=0.5;exitDx=0;exitDy=0;strokeWidth=1;entryX=0;entryY=0.5;entryDx=0;entryDy=0;" edge="1" parent="1" source="2rA_5p5RH7LvxtzQdsJb-13" target="2rA_5p5RH7LvxtzQdsJb-14">
          <mxGeometry width="50" height="50" relative="1" as="geometry">
            <mxPoint x="590" y="400" as="sourcePoint" />
            <mxPoint x="600" y="210" as="targetPoint" />
          </mxGeometry>
        </mxCell>
        <mxCell id="2rA_5p5RH7LvxtzQdsJb-40" value="" style="endArrow=none;html=1;rounded=0;exitX=0;exitY=0.5;exitDx=0;exitDy=0;strokeWidth=1;entryX=1;entryY=0.5;entryDx=0;entryDy=0;" edge="1" parent="1" source="2rA_5p5RH7LvxtzQdsJb-13" target="2rA_5p5RH7LvxtzQdsJb-12">
          <mxGeometry width="50" height="50" relative="1" as="geometry">
            <mxPoint x="410" y="155" as="sourcePoint" />
            <mxPoint x="424" y="155" as="targetPoint" />
          </mxGeometry>
        </mxCell>
        <mxCell id="2rA_5p5RH7LvxtzQdsJb-41" value="" style="endArrow=none;html=1;rounded=0;exitX=1;exitY=0;exitDx=0;exitDy=0;strokeWidth=1;entryX=0;entryY=1;entryDx=0;entryDy=0;" edge="1" parent="1" source="2rA_5p5RH7LvxtzQdsJb-10" target="2rA_5p5RH7LvxtzQdsJb-11">
          <mxGeometry width="50" height="50" relative="1" as="geometry">
            <mxPoint x="420" y="165" as="sourcePoint" />
            <mxPoint x="434" y="165" as="targetPoint" />
          </mxGeometry>
        </mxCell>
        <mxCell id="2rA_5p5RH7LvxtzQdsJb-42" value="" style="endArrow=none;html=1;rounded=0;exitX=1;exitY=0.5;exitDx=0;exitDy=0;strokeWidth=1;entryX=0;entryY=0;entryDx=0;entryDy=0;" edge="1" parent="1" source="2rA_5p5RH7LvxtzQdsJb-7" target="2rA_5p5RH7LvxtzQdsJb-9">
          <mxGeometry width="50" height="50" relative="1" as="geometry">
            <mxPoint x="430" y="175" as="sourcePoint" />
            <mxPoint x="444" y="175" as="targetPoint" />
          </mxGeometry>
        </mxCell>
        <mxCell id="2rA_5p5RH7LvxtzQdsJb-43" value="" style="endArrow=none;html=1;rounded=0;exitX=1;exitY=0.5;exitDx=0;exitDy=0;strokeWidth=1;entryX=0;entryY=0;entryDx=0;entryDy=0;" edge="1" parent="1" source="2rA_5p5RH7LvxtzQdsJb-6" target="2rA_5p5RH7LvxtzQdsJb-7">
          <mxGeometry width="50" height="50" relative="1" as="geometry">
            <mxPoint x="440" y="185" as="sourcePoint" />
            <mxPoint x="454" y="185" as="targetPoint" />
          </mxGeometry>
        </mxCell>
        <mxCell id="2rA_5p5RH7LvxtzQdsJb-44" value="&lt;b&gt;&lt;font style=&quot;font-size: 24px;&quot;&gt;€&lt;/font&gt;&lt;/b&gt;" style="text;html=1;align=center;verticalAlign=middle;whiteSpace=wrap;rounded=0;" vertex="1" parent="1">
          <mxGeometry x="298" y="179" width="60" height="30" as="geometry" />
        </mxCell>
        <mxCell id="2rA_5p5RH7LvxtzQdsJb-47" value="&lt;font size=&quot;1&quot; color=&quot;#9558b2&quot;&gt;&lt;b style=&quot;font-size: 24px;&quot;&gt;S3&lt;/b&gt;&lt;/font&gt;" style="text;html=1;align=center;verticalAlign=middle;whiteSpace=wrap;rounded=0;" vertex="1" parent="1">
          <mxGeometry x="570" y="370" width="60" height="30" as="geometry" />
        </mxCell>
        <mxCell id="2rA_5p5RH7LvxtzQdsJb-48" value="&lt;font color=&quot;#cb3c33&quot; style=&quot;font-size: 24px;&quot;&gt;&lt;b&gt;S2&lt;/b&gt;&lt;/font&gt;" style="text;html=1;align=center;verticalAlign=middle;whiteSpace=wrap;rounded=0;" vertex="1" parent="1">
          <mxGeometry x="100" y="317" width="60" height="30" as="geometry" />
        </mxCell>
        <mxCell id="2rA_5p5RH7LvxtzQdsJb-49" value="&lt;font color=&quot;#4063d8&quot; style=&quot;font-size: 24px;&quot;&gt;&lt;b&gt;S1&lt;/b&gt;&lt;/font&gt;" style="text;html=1;align=center;verticalAlign=middle;whiteSpace=wrap;rounded=0;" vertex="1" parent="1">
          <mxGeometry x="225" y="480" width="60" height="30" as="geometry" />
        </mxCell>
        <mxCell id="2rA_5p5RH7LvxtzQdsJb-50" value="&lt;font color=&quot;#4063d8&quot; style=&quot;font-size: 24px;&quot;&gt;&lt;b&gt;S7&lt;/b&gt;&lt;/font&gt;" style="text;html=1;align=center;verticalAlign=middle;whiteSpace=wrap;rounded=0;" vertex="1" parent="1">
          <mxGeometry x="400" y="317" width="60" height="30" as="geometry" />
        </mxCell>
        <mxCell id="2rA_5p5RH7LvxtzQdsJb-51" value="&lt;font style=&quot;font-size: 24px;&quot; color=&quot;#4063d8&quot;&gt;&lt;b&gt;S8&lt;/b&gt;&lt;/font&gt;" style="text;html=1;align=center;verticalAlign=middle;whiteSpace=wrap;rounded=0;" vertex="1" parent="1">
          <mxGeometry x="195" y="200" width="60" height="30" as="geometry" />
        </mxCell>
        <mxCell id="2rA_5p5RH7LvxtzQdsJb-52" value="&lt;font style=&quot;font-size: 24px;&quot; color=&quot;#4063d8&quot;&gt;&lt;b&gt;S5&lt;/b&gt;&lt;/font&gt;" style="text;html=1;align=center;verticalAlign=middle;whiteSpace=wrap;rounded=0;" vertex="1" parent="1">
          <mxGeometry x="240" y="10" width="60" height="30" as="geometry" />
        </mxCell>
        <mxCell id="2rA_5p5RH7LvxtzQdsJb-53" value="&lt;font style=&quot;font-size: 24px;&quot; color=&quot;#4063d8&quot;&gt;&lt;b&gt;S6&lt;/b&gt;&lt;/font&gt;" style="text;html=1;align=center;verticalAlign=middle;whiteSpace=wrap;rounded=0;" vertex="1" parent="1">
          <mxGeometry x="530" y="30" width="60" height="30" as="geometry" />
        </mxCell>
        <mxCell id="2rA_5p5RH7LvxtzQdsJb-54" value="&lt;font color=&quot;#389826&quot; style=&quot;font-size: 24px;&quot;&gt;&lt;b&gt;S4&lt;/b&gt;&lt;/font&gt;" style="text;html=1;align=center;verticalAlign=middle;whiteSpace=wrap;rounded=0;" vertex="1" parent="1">
          <mxGeometry x="470" y="140" width="60" height="30" as="geometry" />
        </mxCell>
        <mxCell id="2rA_5p5RH7LvxtzQdsJb-55" value="&lt;div&gt;R3&lt;/div&gt;" style="text;html=1;align=center;verticalAlign=middle;whiteSpace=wrap;rounded=0;" vertex="1" parent="1">
          <mxGeometry x="259.76" y="310" width="60" height="30" as="geometry" />
        </mxCell>
        <mxCell id="2rA_5p5RH7LvxtzQdsJb-56" value="&lt;div&gt;R2&lt;/div&gt;" style="text;html=1;align=center;verticalAlign=middle;whiteSpace=wrap;rounded=0;" vertex="1" parent="1">
          <mxGeometry x="379.76" y="210" width="60" height="30" as="geometry" />
        </mxCell>
        <mxCell id="2rA_5p5RH7LvxtzQdsJb-57" value="&lt;div&gt;R1&lt;/div&gt;" style="text;html=1;align=center;verticalAlign=middle;whiteSpace=wrap;rounded=0;" vertex="1" parent="1">
          <mxGeometry x="380" y="360" width="60" height="30" as="geometry" />
        </mxCell>
        <mxCell id="2rA_5p5RH7LvxtzQdsJb-58" value="&lt;div&gt;R1&lt;/div&gt;" style="text;html=1;align=center;verticalAlign=middle;whiteSpace=wrap;rounded=0;" vertex="1" parent="1">
          <mxGeometry x="490" y="246" width="60" height="30" as="geometry" />
        </mxCell>
        <mxCell id="2rA_5p5RH7LvxtzQdsJb-60" value="&lt;div&gt;R1&lt;/div&gt;" style="text;html=1;align=center;verticalAlign=middle;whiteSpace=wrap;rounded=0;" vertex="1" parent="1">
          <mxGeometry x="160" y="407" width="60" height="30" as="geometry" />
        </mxCell>
        <mxCell id="2rA_5p5RH7LvxtzQdsJb-61" value="&lt;div&gt;R1&lt;/div&gt;" style="text;html=1;align=center;verticalAlign=middle;whiteSpace=wrap;rounded=0;" vertex="1" parent="1">
          <mxGeometry x="455" y="90" width="60" height="30" as="geometry" />
        </mxCell>
        <mxCell id="2rA_5p5RH7LvxtzQdsJb-62" value="&lt;div&gt;R4&lt;/div&gt;" style="text;html=1;align=center;verticalAlign=middle;whiteSpace=wrap;rounded=0;" vertex="1" parent="1">
          <mxGeometry x="170" y="276" width="60" height="30" as="geometry" />
        </mxCell>
        <mxCell id="2rA_5p5RH7LvxtzQdsJb-63" value="&lt;div&gt;R4&lt;/div&gt;" style="text;html=1;align=center;verticalAlign=middle;whiteSpace=wrap;rounded=0;" vertex="1" parent="1">
          <mxGeometry x="259.76" y="170" width="60" height="30" as="geometry" />
        </mxCell>
        <mxCell id="2rA_5p5RH7LvxtzQdsJb-64" value="&lt;div&gt;R2&lt;/div&gt;" style="text;html=1;align=center;verticalAlign=middle;whiteSpace=wrap;rounded=0;" vertex="1" parent="1">
          <mxGeometry x="330" y="60" width="60" height="30" as="geometry" />
        </mxCell>
      </root>
    </mxGraphModel>
  </diagram>
</mxfile>
